<?xml version="1.0" encoding="UTF-8" standalone="no"?>
<!DOCTYPE svg PUBLIC "-//W3C//DTD SVG 1.1//EN"
 "http://www.w3.org/Graphics/SVG/1.1/DTD/svg11.dtd">
<!-- Generated by graphviz version 13.1.0 (20250701.0955)
 -->
<!-- Title: stcc4_basic_init Pages: 1 -->
<svg width="261pt" height="430pt"
 viewBox="0.00 0.00 261.00 430.00" xmlns="http://www.w3.org/2000/svg" xmlns:xlink="http://www.w3.org/1999/xlink">
<g id="graph0" class="graph" transform="scale(1 1) rotate(0) translate(4 426)">
<title>stcc4_basic_init</title>
<!-- Node1 -->
<g id="Node000001" class="node">
<title>Node1</title>
<g id="a_Node000001"><a xlink:title="basic example init">
<polygon fill="#999999" stroke="#666666" points="86.5,-230 0,-230 0,-210 86.5,-210 86.5,-230"/>
<text xml:space="preserve" text-anchor="middle" x="43.25" y="-216.5" font-family="Helvetica,sans-Serif" font-size="10.00">stcc4_basic_init</text>
</a>
</g>
</g>
<!-- Node2 -->
<g id="Node000002" class="node">
<title>Node2</title>
<g id="a_Node000002"><a xlink:href="group__stcc4__basic__driver.html#ga4bd1bb88fd2748869139788128cc1649" target="_top" xlink:title="close the chip">
<polygon fill="white" stroke="#666666" points="221.75,-422 153.25,-422 153.25,-402 221.75,-402 221.75,-422"/>
<text xml:space="preserve" text-anchor="middle" x="187.5" y="-408.5" font-family="Helvetica,sans-Serif" font-size="10.00">stcc4_deinit</text>
</a>
</g>
</g>
<!-- Node1&#45;&gt;Node2 -->
<g id="edge1_Node000001_Node000002" class="edge">
<title>Node1&#45;&gt;Node2</title>
<g id="a_edge1_Node000001_Node000002"><a xlink:title=" ">
<path fill="none" stroke="#63b8ff" d="M45.87,-230.34C51.1,-260.23 70.33,-347.49 122.5,-393 128.13,-397.91 134.97,-401.55 142.07,-404.25"/>
<polygon fill="#63b8ff" stroke="#63b8ff" points="140.87,-407.54 151.46,-407.21 142.98,-400.87 140.87,-407.54"/>
</a>
</g>
</g>
<!-- Node3 -->
<g id="Node000003" class="node">
<title>Node3</title>
<g id="a_Node000003"><a xlink:href="group__stcc4__basic__driver.html#gabeca911846257d400ff4be895097120b" target="_top" xlink:title="initialize the chip">
<polygon fill="white" stroke="#666666" points="216.5,-384 158.5,-384 158.5,-364 216.5,-364 216.5,-384"/>
<text xml:space="preserve" text-anchor="middle" x="187.5" y="-370.5" font-family="Helvetica,sans-Serif" font-size="10.00">stcc4_init</text>
</a>
</g>
</g>
<!-- Node1&#45;&gt;Node3 -->
<g id="edge2_Node000001_Node000003" class="edge">
<title>Node1&#45;&gt;Node3</title>
<g id="a_edge2_Node000001_Node000003"><a xlink:title=" ">
<path fill="none" stroke="#63b8ff" d="M47.25,-230.22C55.17,-255.38 79.08,-320.81 122.5,-355 129.67,-360.65 138.49,-364.62 147.26,-367.41"/>
<polygon fill="#63b8ff" stroke="#63b8ff" points="146.18,-370.75 156.75,-369.96 148,-363.98 146.18,-370.75"/>
</a>
</g>
</g>
<!-- Node4 -->
<g id="Node000004" class="node">
<title>Node4</title>
<g id="a_Node000004"><a xlink:href="group__stcc4__interface__driver.html#gac0cefb1026d3c2698afa01edf0f813dd" target="_top" xlink:title="interface print format data">
<polygon fill="white" stroke="#666666" points="244.62,-346 130.38,-346 130.38,-314 244.62,-314 244.62,-346"/>
<text xml:space="preserve" text-anchor="start" x="138.38" y="-332.5" font-family="Helvetica,sans-Serif" font-size="10.00">stcc4_interface_debug</text>
<text xml:space="preserve" text-anchor="middle" x="187.5" y="-320.5" font-family="Helvetica,sans-Serif" font-size="10.00">_print</text>
</a>
</g>
</g>
<!-- Node1&#45;&gt;Node4 -->
<g id="edge3_Node000001_Node000004" class="edge">
<title>Node1&#45;&gt;Node4</title>
<g id="a_edge3_Node000001_Node000004"><a xlink:title=" ">
<path fill="none" stroke="#63b8ff" d="M51.29,-230.3C63.76,-247.85 91.37,-283.72 122.5,-305 124.09,-306.09 125.74,-307.14 127.42,-308.15"/>
<polygon fill="#63b8ff" stroke="#63b8ff" points="125.64,-311.16 136.1,-312.83 128.96,-305 125.64,-311.16"/>
</a>
</g>
</g>
<!-- Node5 -->
<g id="Node000005" class="node">
<title>Node5</title>
<g id="a_Node000005"><a xlink:href="group__stcc4__interface__driver.html#ga53ed648762184e64900da414da27e7d0" target="_top" xlink:title="interface delay ms">
<polygon fill="white" stroke="#666666" points="252.5,-296 122.5,-296 122.5,-276 252.5,-276 252.5,-296"/>
<text xml:space="preserve" text-anchor="middle" x="187.5" y="-282.5" font-family="Helvetica,sans-Serif" font-size="10.00">stcc4_interface_delay_ms</text>
</a>
</g>
</g>
<!-- Node1&#45;&gt;Node5 -->
<g id="edge4_Node000001_Node000005" class="edge">
<title>Node1&#45;&gt;Node5</title>
<g id="a_edge4_Node000001_Node000005"><a xlink:title=" ">
<path fill="none" stroke="#63b8ff" d="M58.93,-230.37C74.22,-240.78 99.15,-256.72 122.5,-267 126.5,-268.76 130.72,-270.42 134.99,-271.96"/>
<polygon fill="#63b8ff" stroke="#63b8ff" points="133.63,-275.19 144.22,-275.07 135.87,-268.56 133.63,-275.19"/>
</a>
</g>
</g>
<!-- Node6 -->
<g id="Node000006" class="node">
<title>Node6</title>
<g id="a_Node000006"><a xlink:href="group__stcc4__interface__driver.html#ga6d3787228e1422b0f12f360cfa4371e3" target="_top" xlink:title="interface iic bus deinit">
<polygon fill="white" stroke="#666666" points="236.38,-258 138.62,-258 138.62,-226 236.38,-226 236.38,-258"/>
<text xml:space="preserve" text-anchor="start" x="146.62" y="-244.5" font-family="Helvetica,sans-Serif" font-size="10.00">stcc4_interface_iic</text>
<text xml:space="preserve" text-anchor="middle" x="187.5" y="-232.5" font-family="Helvetica,sans-Serif" font-size="10.00">_deinit</text>
</a>
</g>
</g>
<!-- Node1&#45;&gt;Node6 -->
<g id="edge5_Node000001_Node000006" class="edge">
<title>Node1&#45;&gt;Node6</title>
<g id="a_edge5_Node000001_Node000006"><a xlink:title=" ">
<path fill="none" stroke="#63b8ff" d="M86.93,-226.6C99.59,-228.56 113.69,-230.74 127.2,-232.83"/>
<polygon fill="#63b8ff" stroke="#63b8ff" points="126.46,-236.26 136.87,-234.32 127.53,-229.34 126.46,-236.26"/>
</a>
</g>
</g>
<!-- Node7 -->
<g id="Node000007" class="node">
<title>Node7</title>
<g id="a_Node000007"><a xlink:href="group__stcc4__interface__driver.html#ga554728c9ef9f7a8c041e0563417eefbd" target="_top" xlink:title="interface iic bus init">
<polygon fill="white" stroke="#666666" points="245.38,-208 129.62,-208 129.62,-188 245.38,-188 245.38,-208"/>
<text xml:space="preserve" text-anchor="middle" x="187.5" y="-194.5" font-family="Helvetica,sans-Serif" font-size="10.00">stcc4_interface_iic_init</text>
</a>
</g>
</g>
<!-- Node1&#45;&gt;Node7 -->
<g id="edge6_Node000001_Node000007" class="edge">
<title>Node1&#45;&gt;Node7</title>
<g id="a_edge6_Node000001_Node000007"><a xlink:title=" ">
<path fill="none" stroke="#63b8ff" d="M86.93,-213.4C96.83,-211.87 107.61,-210.2 118.3,-208.55"/>
<polygon fill="#63b8ff" stroke="#63b8ff" points="118.53,-212.05 127.88,-207.07 117.46,-205.14 118.53,-212.05"/>
</a>
</g>
</g>
<!-- Node8 -->
<g id="Node000008" class="node">
<title>Node8</title>
<g id="a_Node000008"><a xlink:href="group__stcc4__interface__driver.html#ga99cc6b6d8d46e746c6400175fa701071" target="_top" xlink:title="interface iic bus read command">
<polygon fill="white" stroke="#666666" points="236.38,-170 138.62,-170 138.62,-138 236.38,-138 236.38,-170"/>
<text xml:space="preserve" text-anchor="start" x="146.62" y="-156.5" font-family="Helvetica,sans-Serif" font-size="10.00">stcc4_interface_iic</text>
<text xml:space="preserve" text-anchor="middle" x="187.5" y="-144.5" font-family="Helvetica,sans-Serif" font-size="10.00">_read_cmd</text>
</a>
</g>
</g>
<!-- Node1&#45;&gt;Node8 -->
<g id="edge7_Node000001_Node000008" class="edge">
<title>Node1&#45;&gt;Node8</title>
<g id="a_edge7_Node000001_Node000008"><a xlink:title=" ">
<path fill="none" stroke="#63b8ff" d="M62.62,-209.64C78.3,-200.98 101.57,-188.54 122.5,-179 125.6,-177.59 128.81,-176.18 132.06,-174.79"/>
<polygon fill="#63b8ff" stroke="#63b8ff" points="133.22,-178.1 141.11,-171.03 130.53,-171.63 133.22,-178.1"/>
</a>
</g>
</g>
<!-- Node9 -->
<g id="Node000009" class="node">
<title>Node9</title>
<g id="a_Node000009"><a xlink:href="group__stcc4__interface__driver.html#ga1e068957c7009749fab0d05cd95d68e1" target="_top" xlink:title="interface iic bus write command">
<polygon fill="white" stroke="#666666" points="236.38,-120 138.62,-120 138.62,-88 236.38,-88 236.38,-120"/>
<text xml:space="preserve" text-anchor="start" x="146.62" y="-106.5" font-family="Helvetica,sans-Serif" font-size="10.00">stcc4_interface_iic</text>
<text xml:space="preserve" text-anchor="middle" x="187.5" y="-94.5" font-family="Helvetica,sans-Serif" font-size="10.00">_write_cmd</text>
</a>
</g>
</g>
<!-- Node1&#45;&gt;Node9 -->
<g id="edge8_Node000001_Node000009" class="edge">
<title>Node1&#45;&gt;Node9</title>
<g id="a_edge8_Node000001_Node000009"><a xlink:title=" ">
<path fill="none" stroke="#63b8ff" d="M50.73,-209.54C62.74,-190.93 90.2,-151.89 122.5,-129 124.48,-127.6 126.54,-126.26 128.67,-124.99"/>
<polygon fill="#63b8ff" stroke="#63b8ff" points="129.83,-128.34 136.99,-120.53 126.52,-122.17 129.83,-128.34"/>
</a>
</g>
</g>
<!-- Node10 -->
<g id="Node000010" class="node">
<title>Node10</title>
<g id="a_Node000010"><a xlink:href="group__stcc4__basic__driver.html#gae231f4d362bf1626a350400f59dc8fa0" target="_top" xlink:title="set address pin">
<polygon fill="white" stroke="#666666" points="245.75,-70 129.25,-70 129.25,-50 245.75,-50 245.75,-70"/>
<text xml:space="preserve" text-anchor="middle" x="187.5" y="-56.5" font-family="Helvetica,sans-Serif" font-size="10.00">stcc4_set_address_pin</text>
</a>
</g>
</g>
<!-- Node1&#45;&gt;Node10 -->
<g id="edge9_Node000001_Node000010" class="edge">
<title>Node1&#45;&gt;Node10</title>
<g id="a_edge9_Node000001_Node000010"><a xlink:title=" ">
<path fill="none" stroke="#63b8ff" d="M47,-209.72C54.49,-183.73 77.74,-114.93 122.5,-79 123.83,-77.93 125.21,-76.93 126.65,-75.98"/>
<polygon fill="#63b8ff" stroke="#63b8ff" points="128.25,-79.09 135.35,-71.22 124.89,-72.95 128.25,-79.09"/>
</a>
</g>
</g>
<!-- Node11 -->
<g id="Node000011" class="node">
<title>Node11</title>
<g id="a_Node000011"><a xlink:href="group__stcc4__basic__driver.html#gaf570bff71f8c2ab141704db5114d1e45" target="_top" xlink:title="start continuous measurement">
<polygon fill="white" stroke="#666666" points="246.12,-32 128.88,-32 128.88,0 246.12,0 246.12,-32"/>
<text xml:space="preserve" text-anchor="start" x="136.88" y="-18.5" font-family="Helvetica,sans-Serif" font-size="10.00">stcc4_start_continuous</text>
<text xml:space="preserve" text-anchor="middle" x="187.5" y="-6.5" font-family="Helvetica,sans-Serif" font-size="10.00">_measurement</text>
</a>
</g>
</g>
<!-- Node1&#45;&gt;Node11 -->
<g id="edge10_Node000001_Node000011" class="edge">
<title>Node1&#45;&gt;Node11</title>
<g id="a_edge10_Node000001_Node000011"><a xlink:title=" ">
<path fill="none" stroke="#63b8ff" d="M45.95,-209.52C51.39,-179.19 71.15,-90.35 122.5,-41 123.13,-40.4 123.77,-39.81 124.43,-39.23"/>
<polygon fill="#63b8ff" stroke="#63b8ff" points="126.47,-42.08 132.51,-33.38 122.36,-36.41 126.47,-42.08"/>
</a>
</g>
</g>
</g>
</svg>
