<?xml version="1.0" encoding="UTF-8" standalone="no"?>
<!DOCTYPE svg PUBLIC "-//W3C//DTD SVG 1.1//EN"
 "http://www.w3.org/Graphics/SVG/1.1/DTD/svg11.dtd">
<!-- Generated by graphviz version 13.1.0 (20250701.0955)
 -->
<!-- Title: stcc4_shot_init Pages: 1 -->
<svg width="256pt" height="342pt"
 viewBox="0.00 0.00 256.00 342.00" xmlns="http://www.w3.org/2000/svg" xmlns:xlink="http://www.w3.org/1999/xlink">
<g id="graph0" class="graph" transform="scale(1 1) rotate(0) translate(4 338)">
<title>stcc4_shot_init</title>
<!-- Node1 -->
<g id="Node000001" class="node">
<title>Node1</title>
<g id="a_Node000001"><a xlink:title="shot example init">
<polygon fill="#999999" stroke="#666666" points="82,-180 0,-180 0,-160 82,-160 82,-180"/>
<text xml:space="preserve" text-anchor="middle" x="41" y="-166.5" font-family="Helvetica,sans-Serif" font-size="10.00">stcc4_shot_init</text>
</a>
</g>
</g>
<!-- Node2 -->
<g id="Node000002" class="node">
<title>Node2</title>
<g id="a_Node000002"><a xlink:href="group__stcc4__basic__driver.html#gabeca911846257d400ff4be895097120b" target="_top" xlink:title="initialize the chip">
<polygon fill="white" stroke="#666666" points="212,-334 154,-334 154,-314 212,-314 212,-334"/>
<text xml:space="preserve" text-anchor="middle" x="183" y="-320.5" font-family="Helvetica,sans-Serif" font-size="10.00">stcc4_init</text>
</a>
</g>
</g>
<!-- Node1&#45;&gt;Node2 -->
<g id="edge1_Node000001_Node000002" class="edge">
<title>Node1&#45;&gt;Node2</title>
<g id="a_edge1_Node000001_Node000002"><a xlink:title=" ">
<path fill="none" stroke="#63b8ff" d="M44.82,-180.21C52.31,-205.37 75.11,-270.78 118,-305 125.14,-310.69 133.94,-314.68 142.7,-317.47"/>
<polygon fill="#63b8ff" stroke="#63b8ff" points="141.64,-320.81 152.2,-320.02 143.45,-314.05 141.64,-320.81"/>
</a>
</g>
</g>
<!-- Node3 -->
<g id="Node000003" class="node">
<title>Node3</title>
<g id="a_Node000003"><a xlink:href="group__stcc4__interface__driver.html#gac0cefb1026d3c2698afa01edf0f813dd" target="_top" xlink:title="interface print format data">
<polygon fill="white" stroke="#666666" points="240.12,-296 125.88,-296 125.88,-264 240.12,-264 240.12,-296"/>
<text xml:space="preserve" text-anchor="start" x="133.88" y="-282.5" font-family="Helvetica,sans-Serif" font-size="10.00">stcc4_interface_debug</text>
<text xml:space="preserve" text-anchor="middle" x="183" y="-270.5" font-family="Helvetica,sans-Serif" font-size="10.00">_print</text>
</a>
</g>
</g>
<!-- Node1&#45;&gt;Node3 -->
<g id="edge2_Node000001_Node000003" class="edge">
<title>Node1&#45;&gt;Node3</title>
<g id="a_edge2_Node000001_Node000003"><a xlink:title=" ">
<path fill="none" stroke="#63b8ff" d="M48.77,-180.31C60.77,-197.88 87.43,-233.78 118,-255 119.58,-256.1 121.22,-257.16 122.9,-258.18"/>
<polygon fill="#63b8ff" stroke="#63b8ff" points="121.1,-261.19 131.56,-262.89 124.45,-255.04 121.1,-261.19"/>
</a>
</g>
</g>
<!-- Node4 -->
<g id="Node000004" class="node">
<title>Node4</title>
<g id="a_Node000004"><a xlink:href="group__stcc4__interface__driver.html#ga53ed648762184e64900da414da27e7d0" target="_top" xlink:title="interface delay ms">
<polygon fill="white" stroke="#666666" points="248,-246 118,-246 118,-226 248,-226 248,-246"/>
<text xml:space="preserve" text-anchor="middle" x="183" y="-232.5" font-family="Helvetica,sans-Serif" font-size="10.00">stcc4_interface_delay_ms</text>
</a>
</g>
</g>
<!-- Node1&#45;&gt;Node4 -->
<g id="edge3_Node000001_Node000004" class="edge">
<title>Node1&#45;&gt;Node4</title>
<g id="a_edge3_Node000001_Node000004"><a xlink:title=" ">
<path fill="none" stroke="#63b8ff" d="M56.21,-180.39C71.02,-190.83 95.21,-206.79 118,-217 121.82,-218.71 125.84,-220.32 129.92,-221.82"/>
<polygon fill="#63b8ff" stroke="#63b8ff" points="128.76,-225.12 139.35,-225.03 131.02,-218.49 128.76,-225.12"/>
</a>
</g>
</g>
<!-- Node5 -->
<g id="Node000005" class="node">
<title>Node5</title>
<g id="a_Node000005"><a xlink:href="group__stcc4__interface__driver.html#ga6d3787228e1422b0f12f360cfa4371e3" target="_top" xlink:title="interface iic bus deinit">
<polygon fill="white" stroke="#666666" points="231.88,-208 134.12,-208 134.12,-176 231.88,-176 231.88,-208"/>
<text xml:space="preserve" text-anchor="start" x="142.12" y="-194.5" font-family="Helvetica,sans-Serif" font-size="10.00">stcc4_interface_iic</text>
<text xml:space="preserve" text-anchor="middle" x="183" y="-182.5" font-family="Helvetica,sans-Serif" font-size="10.00">_deinit</text>
</a>
</g>
</g>
<!-- Node1&#45;&gt;Node5 -->
<g id="edge4_Node000001_Node000005" class="edge">
<title>Node1&#45;&gt;Node5</title>
<g id="a_edge4_Node000001_Node000005"><a xlink:title=" ">
<path fill="none" stroke="#63b8ff" d="M82.49,-176.36C94.99,-178.33 109.01,-180.53 122.51,-182.65"/>
<polygon fill="#63b8ff" stroke="#63b8ff" points="121.75,-186.08 132.17,-184.17 122.84,-179.16 121.75,-186.08"/>
</a>
</g>
</g>
<!-- Node6 -->
<g id="Node000006" class="node">
<title>Node6</title>
<g id="a_Node000006"><a xlink:href="group__stcc4__interface__driver.html#ga554728c9ef9f7a8c041e0563417eefbd" target="_top" xlink:title="interface iic bus init">
<polygon fill="white" stroke="#666666" points="240.88,-158 125.12,-158 125.12,-138 240.88,-138 240.88,-158"/>
<text xml:space="preserve" text-anchor="middle" x="183" y="-144.5" font-family="Helvetica,sans-Serif" font-size="10.00">stcc4_interface_iic_init</text>
</a>
</g>
</g>
<!-- Node1&#45;&gt;Node6 -->
<g id="edge5_Node000001_Node000006" class="edge">
<title>Node1&#45;&gt;Node6</title>
<g id="a_edge5_Node000001_Node000006"><a xlink:title=" ">
<path fill="none" stroke="#63b8ff" d="M82.49,-163.64C92.26,-162.1 102.97,-160.42 113.63,-158.74"/>
<polygon fill="#63b8ff" stroke="#63b8ff" points="113.85,-162.25 123.18,-157.24 112.76,-155.34 113.85,-162.25"/>
</a>
</g>
</g>
<!-- Node7 -->
<g id="Node000007" class="node">
<title>Node7</title>
<g id="a_Node000007"><a xlink:href="group__stcc4__interface__driver.html#ga99cc6b6d8d46e746c6400175fa701071" target="_top" xlink:title="interface iic bus read command">
<polygon fill="white" stroke="#666666" points="231.88,-120 134.12,-120 134.12,-88 231.88,-88 231.88,-120"/>
<text xml:space="preserve" text-anchor="start" x="142.12" y="-106.5" font-family="Helvetica,sans-Serif" font-size="10.00">stcc4_interface_iic</text>
<text xml:space="preserve" text-anchor="middle" x="183" y="-94.5" font-family="Helvetica,sans-Serif" font-size="10.00">_read_cmd</text>
</a>
</g>
</g>
<!-- Node1&#45;&gt;Node7 -->
<g id="edge6_Node000001_Node000007" class="edge">
<title>Node1&#45;&gt;Node7</title>
<g id="a_edge6_Node000001_Node000007"><a xlink:title=" ">
<path fill="none" stroke="#63b8ff" d="M59.8,-159.59C75.01,-150.9 97.59,-138.45 118,-129 121.09,-127.57 124.29,-126.14 127.54,-124.74"/>
<polygon fill="#63b8ff" stroke="#63b8ff" points="128.71,-128.05 136.58,-120.96 126.01,-121.59 128.71,-128.05"/>
</a>
</g>
</g>
<!-- Node8 -->
<g id="Node000008" class="node">
<title>Node8</title>
<g id="a_Node000008"><a xlink:href="group__stcc4__interface__driver.html#ga1e068957c7009749fab0d05cd95d68e1" target="_top" xlink:title="interface iic bus write command">
<polygon fill="white" stroke="#666666" points="231.88,-70 134.12,-70 134.12,-38 231.88,-38 231.88,-70"/>
<text xml:space="preserve" text-anchor="start" x="142.12" y="-56.5" font-family="Helvetica,sans-Serif" font-size="10.00">stcc4_interface_iic</text>
<text xml:space="preserve" text-anchor="middle" x="183" y="-44.5" font-family="Helvetica,sans-Serif" font-size="10.00">_write_cmd</text>
</a>
</g>
</g>
<!-- Node1&#45;&gt;Node8 -->
<g id="edge7_Node000001_Node000008" class="edge">
<title>Node1&#45;&gt;Node8</title>
<g id="a_edge7_Node000001_Node000008"><a xlink:title=" ">
<path fill="none" stroke="#63b8ff" d="M48.22,-159.53C59.77,-140.9 86.25,-101.84 118,-79 119.97,-77.58 122.02,-76.24 124.15,-74.95"/>
<polygon fill="#63b8ff" stroke="#63b8ff" points="125.31,-78.3 132.44,-70.47 121.98,-72.15 125.31,-78.3"/>
</a>
</g>
</g>
<!-- Node9 -->
<g id="Node000009" class="node">
<title>Node9</title>
<g id="a_Node000009"><a xlink:href="group__stcc4__basic__driver.html#gae231f4d362bf1626a350400f59dc8fa0" target="_top" xlink:title="set address pin">
<polygon fill="white" stroke="#666666" points="241.25,-20 124.75,-20 124.75,0 241.25,0 241.25,-20"/>
<text xml:space="preserve" text-anchor="middle" x="183" y="-6.5" font-family="Helvetica,sans-Serif" font-size="10.00">stcc4_set_address_pin</text>
</a>
</g>
</g>
<!-- Node1&#45;&gt;Node9 -->
<g id="edge8_Node000001_Node000009" class="edge">
<title>Node1&#45;&gt;Node9</title>
<g id="a_edge8_Node000001_Node000009"><a xlink:title=" ">
<path fill="none" stroke="#63b8ff" d="M44.58,-159.72C51.64,-133.74 73.76,-64.96 118,-29 119.32,-27.93 120.7,-26.91 122.13,-25.96"/>
<polygon fill="#63b8ff" stroke="#63b8ff" points="123.74,-29.07 130.81,-21.17 120.36,-22.94 123.74,-29.07"/>
</a>
</g>
</g>
</g>
</svg>
