<?xml version="1.0" encoding="UTF-8" standalone="no"?>
<!DOCTYPE svg PUBLIC "-//W3C//DTD SVG 1.1//EN"
 "http://www.w3.org/Graphics/SVG/1.1/DTD/svg11.dtd">
<!-- Generated by graphviz version 13.1.0 (20250701.0955)
 -->
<!-- Title: stcc4_basic_deinit Pages: 1 -->
<svg width="258pt" height="78pt"
 viewBox="0.00 0.00 258.00 78.00" xmlns="http://www.w3.org/2000/svg" xmlns:xlink="http://www.w3.org/1999/xlink">
<g id="graph0" class="graph" transform="scale(1 1) rotate(0) translate(4 74)">
<title>stcc4_basic_deinit</title>
<!-- Node1 -->
<g id="Node000001" class="node">
<title>Node1</title>
<g id="a_Node000001"><a xlink:title="basic example deinit">
<polygon fill="#999999" stroke="#666666" points="97,-48 0,-48 0,-28 97,-28 97,-48"/>
<text xml:space="preserve" text-anchor="middle" x="48.5" y="-34.5" font-family="Helvetica,sans-Serif" font-size="10.00">stcc4_basic_deinit</text>
</a>
</g>
</g>
<!-- Node2 -->
<g id="Node000002" class="node">
<title>Node2</title>
<g id="a_Node000002"><a xlink:href="group__stcc4__basic__driver.html#ga4bd1bb88fd2748869139788128cc1649" target="_top" xlink:title="close the chip">
<polygon fill="white" stroke="#666666" points="225.5,-70 157,-70 157,-50 225.5,-50 225.5,-70"/>
<text xml:space="preserve" text-anchor="middle" x="191.25" y="-56.5" font-family="Helvetica,sans-Serif" font-size="10.00">stcc4_deinit</text>
</a>
</g>
</g>
<!-- Node1&#45;&gt;Node2 -->
<g id="edge1_Node000001_Node000002" class="edge">
<title>Node1&#45;&gt;Node2</title>
<g id="a_edge1_Node000001_Node000002"><a xlink:title=" ">
<path fill="none" stroke="#63b8ff" d="M97.15,-45.45C112.79,-47.89 130.1,-50.6 145.51,-53.01"/>
<polygon fill="#63b8ff" stroke="#63b8ff" points="144.94,-56.46 155.37,-54.55 146.03,-49.54 144.94,-56.46"/>
</a>
</g>
</g>
<!-- Node3 -->
<g id="Node000003" class="node">
<title>Node3</title>
<g id="a_Node000003"><a xlink:href="group__stcc4__basic__driver.html#ga181e13a42d0e1f17553c73a621496c68" target="_top" xlink:title="stop continuous measurement">
<polygon fill="white" stroke="#666666" points="249.5,-32 133,-32 133,0 249.5,0 249.5,-32"/>
<text xml:space="preserve" text-anchor="start" x="141" y="-18.5" font-family="Helvetica,sans-Serif" font-size="10.00">stcc4_stop_continuous</text>
<text xml:space="preserve" text-anchor="middle" x="191.25" y="-6.5" font-family="Helvetica,sans-Serif" font-size="10.00">_measurement</text>
</a>
</g>
</g>
<!-- Node1&#45;&gt;Node3 -->
<g id="edge2_Node000001_Node000003" class="edge">
<title>Node1&#45;&gt;Node3</title>
<g id="a_edge2_Node000001_Node000003"><a xlink:title=" ">
<path fill="none" stroke="#63b8ff" d="M97.15,-30.55C105.05,-29.32 113.37,-28.02 121.66,-26.72"/>
<polygon fill="#63b8ff" stroke="#63b8ff" points="122.07,-30.2 131.4,-25.2 120.98,-23.28 122.07,-30.2"/>
</a>
</g>
</g>
</g>
</svg>
