<?xml version="1.0" encoding="UTF-8" standalone="no"?>
<!DOCTYPE svg PUBLIC "-//W3C//DTD SVG 1.1//EN"
 "http://www.w3.org/Graphics/SVG/1.1/DTD/svg11.dtd">
<!-- Generated by graphviz version 13.1.0 (20250701.0955)
 -->
<!-- Title: stcc4_shot_read Pages: 1 -->
<svg width="270pt" height="66pt"
 viewBox="0.00 0.00 270.00 66.00" xmlns="http://www.w3.org/2000/svg" xmlns:xlink="http://www.w3.org/1999/xlink">
<g id="graph0" class="graph" transform="scale(1 1) rotate(0) translate(4 62)">
<title>stcc4_shot_read</title>
<!-- Node1 -->
<g id="Node000001" class="node">
<title>Node1</title>
<g id="a_Node000001"><a xlink:title="shot example read">
<polygon fill="#999999" stroke="#666666" points="88,-39 0,-39 0,-19 88,-19 88,-39"/>
<text xml:space="preserve" text-anchor="middle" x="44" y="-25.5" font-family="Helvetica,sans-Serif" font-size="10.00">stcc4_shot_read</text>
</a>
</g>
</g>
<!-- Node2 -->
<g id="Node000002" class="node">
<title>Node2</title>
<g id="a_Node000002"><a xlink:href="group__stcc4__basic__driver.html#gaac3910442aa47828e8a0f4cbf0a9402a" target="_top" xlink:title="measure single shot">
<polygon fill="white" stroke="#666666" points="261.5,-58 124,-58 124,-38 261.5,-38 261.5,-58"/>
<text xml:space="preserve" text-anchor="middle" x="192.75" y="-44.5" font-family="Helvetica,sans-Serif" font-size="10.00">stcc4_measure_single_shot</text>
</a>
</g>
</g>
<!-- Node1&#45;&gt;Node2 -->
<g id="edge1_Node000001_Node000002" class="edge">
<title>Node1&#45;&gt;Node2</title>
<g id="a_edge1_Node000001_Node000002"><a xlink:title=" ">
<path fill="none" stroke="#63b8ff" d="M88.24,-34.6C95.91,-35.59 104.11,-36.65 112.42,-37.73"/>
<polygon fill="#63b8ff" stroke="#63b8ff" points="111.9,-41.19 122.27,-39 112.8,-34.25 111.9,-41.19"/>
</a>
</g>
</g>
<!-- Node3 -->
<g id="Node000003" class="node">
<title>Node3</title>
<g id="a_Node000003"><a xlink:href="group__stcc4__basic__driver.html#gaeadc17181b73fbb9a9d72aeeedade97e" target="_top" xlink:title="read data">
<polygon fill="white" stroke="#666666" points="224.75,-20 160.75,-20 160.75,0 224.75,0 224.75,-20"/>
<text xml:space="preserve" text-anchor="middle" x="192.75" y="-6.5" font-family="Helvetica,sans-Serif" font-size="10.00">stcc4_read</text>
</a>
</g>
</g>
<!-- Node1&#45;&gt;Node3 -->
<g id="edge2_Node000001_Node000003" class="edge">
<title>Node1&#45;&gt;Node3</title>
<g id="a_edge2_Node000001_Node000003"><a xlink:title=" ">
<path fill="none" stroke="#63b8ff" d="M88.24,-23.4C107.42,-20.92 129.93,-18 149.05,-15.53"/>
<polygon fill="#63b8ff" stroke="#63b8ff" points="149.49,-19 158.96,-14.25 148.59,-12.06 149.49,-19"/>
</a>
</g>
</g>
</g>
</svg>
